PathFileType	4	(X/Y/Z)	/Users/itak/Documents/Research/Walk-IL/dataset/trc/00413_00012.trc
DataRate	CameraRate	NumFrames	NumMarkers	Units	OrigDataRate	OrigDataStartFrame	OrigNumFrames
100.000000	100.000000	4	53	mm	100.000000	216	576
Frame#	Time	RPSI			LPSI			L3			STRN			T10			C7			CLAV			RBAK			LBAK			LSHO			LUPA			LAEL			LAOL			LWTS			LWPS			LFRA			LIFD			LHPS			LHTS			RSHO			RUPA			RAEL			RAOL			RWTS			RWPS			RFRA			RIFD			RHTS			RHPS			RBHD			LFHD			RFHD			LBHD			LHIP			RHIP			RASI			LASI			LKNE			LTHI			LANK			LTIP			LTOE			LMT1			LMT5			LHEE			RKNE			RTHI			RANK			RTIP			RTOE			RMT1			RMT5			RHEE			
		X1	Y1	Z1	X2	Y2	Z2	X3	Y3	Z3	X4	Y4	Z4	X5	Y5	Z5	X6	Y6	Z6	X7	Y7	Z7	X8	Y8	Z8	X9	Y9	Z9	X10	Y10	Z10	X11	Y11	Z11	X12	Y12	Z12	X13	Y13	Z13	X14	Y14	Z14	X15	Y15	Z15	X16	Y16	Z16	X17	Y17	Z17	X18	Y18	Z18	X19	Y19	Z19	X20	Y20	Z20	X21	Y21	Z21	X22	Y22	Z22	X23	Y23	Z23	X24	Y24	Z24	X25	Y25	Z25	X26	Y26	Z26	X27	Y27	Z27	X28	Y28	Z28	X29	Y29	Z29	X30	Y30	Z30	X31	Y31	Z31	X32	Y32	Z32	X33	Y33	Z33	X34	Y34	Z34	X35	Y35	Z35	X36	Y36	Z36	X37	Y37	Z37	X38	Y38	Z38	X39	Y39	Z39	X40	Y40	Z40	X41	Y41	Z41	X42	Y42	Z42	X43	Y43	Z43	X44	Y44	Z44	X45	Y45	Z45	X46	Y46	Z46	X47	Y47	Z47	X48	Y48	Z48	X49	Y49	Z49	X50	Y50	Z50	X51	Y51	Z51	X52	Y52	Z52	X53	Y53	Z53	

217	2.16	-567.7911987304688	947.6160278320312	643.5317993164062	-559.4293212890625	928.5767822265625	510.4933166503906	-561.50732421875	1014.869018554688	587.6051025390625	-313.3365173339844	1155.670166015625	603.45556640625	-568.2239990234375	1120.600830078125	582.0802001953125	-511.8291015625	1363.87158203125	578.5316772460938	-359.8000183105469	1278.064575195312	595.2968139648438	-566.9362182617188	1226.500610351562	649.580078125	-522.3731689453125	1323.763916015625	476.4227294921875	-432.83935546875	1333.247192382812	429.501708984375	-476.1990356445312	1223.390991210938	359.8069152832031	-506.4752197265625	1029.030639648438	334.5494689941406	-562.56591796875	1021.248657226562	397.6119079589844	-483.8311767578125	796.441650390625	381.0411376953125	-529.26220703125	800.4054565429688	312.0232238769531	-519.1610717773438	924.6351318359375	322.7048950195312	-544.2885131835938	628.2589111328125	373.6736755371094	-544.8093872070312	714.5989379882812	319.7766418457031	-498.8365478515625	698.6538696289062	360.5066223144531	-459.9730529785156	1346.32080078125	741.0927734375	-478.5392761230469	1284.998779296875	802.5	-484.1807861328125	1024.662353515625	861.1390380859375	-504.2733764648438	1010.035278320312	767.2061767578125	-292.0919799804688	868.6785888671875	820.5357055664062	-322.2255249023438	839.763427734375	881.5343627929688	-441.3639831542969	966.5137329101562	874.1796875	-222.4884185791016	711.3221435546875	815.521484375	-230.0085601806641	780.959228515625	836.3255004882812	-279.6455993652344	760.5904541015625	878.290283203125	-506.6081848144531	1544.22802734375	640.5626831054688	-337.9263916015625	1562.776489257812	536.8784790039062	-376.2131958007812	1572.54541015625	652.9879150390625	-471.7265625	1525.350830078125	482.9848937988281	-458.43408203125	922.9146118164062	411.5664978027344	-502.8824462890625	917.4410400390625	768.59912109375	-362.0283508300781	913.6693115234375	735.6154174804688	-350.6517333984375	921.2540893554688	472.7279357910156	-232.0281524658203	475.3270874023438	484.2006530761719	-299.2152709960938	594.8388671875	453.4299621582031	-201.5348663330078	33.47427749633789	549.9244995117188	-213.8183135986328	239.1234130859375	505.1258850097656	1.356592297554016	84.13737487792969	607.965576171875	-72.05825805664062	68.14267730712891	640.9266967773438	-77.67899322509766	52.54738616943359	535.9849853515625	-237.0158538818359	28.03655242919922	607.0055541992188	-597.1428833007812	447.5972900390625	724.51220703125	-476.1673889160156	684.7999267578125	764.5866088867188	-807.590576171875	75.39900207519531	661.5977172851562	-637.1129150390625	326.4190368652344	703.6262817382812	-629.6753540039062	38.58172225952148	613.8741455078125	-699.7227783203125	51.30277633666992	578.909912109375	-728.9998168945312	46.24369430541992	674.5064697265625	-876.1832275390625	89.13336944580078	600.588134765625	
218	2.17	-556.4430541992188	947.2655029296875	642.86865234375	-548.252685546875	928.394287109375	509.7479553222656	-550.2465209960938	1013.961120605469	586.977294921875	-303.3118286132812	1155.935180664062	602.003662109375	-557.9820556640625	1119.803100585938	581.447509765625	-502.9002380371094	1363.272094726562	577.5482788085938	-350.4062805175781	1278.1181640625	593.773193359375	-556.9501953125	1225.759033203125	648.9708251953125	-513.69775390625	1322.920532226562	475.6094665527344	-424.5027770996094	1332.740844726562	428.2052001953125	-468.4114990234375	1222.919067382812	358.9015808105469	-499.7069091796875	1028.620361328125	334.352783203125	-555.2254028320312	1021.189270019531	397.9588012695312	-478.850830078125	795.82666015625	381.1486511230469	-524.4517211914062	800.2234497070312	312.2174682617188	-513.2234497070312	924.340087890625	322.7383728027344	-541.7357788085938	628.4221801757812	374.3136291503906	-541.1766967773438	714.6054077148438	320.1749877929688	-495.4068298339844	698.077392578125	360.93310546875	-450.3434143066406	1346.26611328125	739.8714599609375	-468.2816772460938	1284.839477539062	801.4404907226562	-472.1315307617188	1024.58984375	860.3785400390625	-492.9664306640625	1009.808898925781	766.95703125	-278.9266662597656	870.6994018554688	818.2131958007812	-308.0406188964844	841.6028442382812	879.624267578125	-428.7511291503906	966.9944458007812	873.1759643554688	-207.8749847412109	714.001953125	812.5287475585938	-215.8426971435547	783.6284790039062	833.282470703125	-264.7916259765625	762.7286376953125	875.8668212890625	-497.9617614746094	1543.859497070312	639.4813232421875	-329.3868408203125	1562.821655273438	535.638671875	-367.6144409179688	1572.425659179688	651.80029296875	-463.1646423339844	1525.328735351562	481.8218383789062	-447.0475463867188	922.9729614257812	410.9084167480469	-491.7937622070312	917.2404174804688	768.0796508789062	-350.7276306152344	913.6668090820312	735.1770629882812	-339.3518676757812	921.448974609375	472.2319641113281	-221.9628143310547	474.7463684082031	485.1588439941406	-288.675048828125	594.134765625	453.9797058105469	-200.7707214355469	33.72660446166992	550.9732055664062	-207.5962524414062	238.1257629394531	506.567138671875	4.240556240081787	77.45040893554688	609.1400146484375	-69.93508148193359	63.48957061767578	642.1412963867188	-76.27345275878906	49.46530914306641	537.2108154296875	-236.3070983886719	28.65531539916992	608.0374145507812	-588.3340454101562	448.2907104492188	724.6708374023438	-465.9281616210938	684.8123779296875	764.18017578125	-805.73828125	78.63018035888672	662.5833740234375	-630.5215454101562	327.7293701171875	704.4877319335938	-629.4863891601562	38.57092666625977	614.0214233398438	-698.8078002929688	52.49217224121094	579.656005859375	-727.9993896484375	46.36537551879883	675.0263671875	-873.5877685546875	95.15930938720703	601.53076171875	
219	2.18	-544.7055053710938	947.0560302734375	642.2527465820312	-536.7848510742188	928.4945068359375	509.037841796875	-538.6456298828125	1013.23828125	586.3970947265625	-293.1119079589844	1156.517700195312	600.4912719726562	-547.5133056640625	1119.156616210938	580.8152465820312	-493.929931640625	1362.862670898438	576.5099487304688	-340.9056091308594	1278.453979492188	592.1959838867188	-546.8203735351562	1225.159423828125	648.322021484375	-504.951904296875	1322.251220703125	474.742431640625	-416.1040954589844	1332.4638671875	426.862548828125	-460.480712890625	1222.656005859375	357.9618835449219	-492.6468200683594	1028.397094726562	334.1236877441406	-547.580322265625	1021.276428222656	398.2713317871094	-473.2701721191406	795.4591064453125	381.2688903808594	-519.052734375	800.1878662109375	312.4477233886719	-506.8674621582031	924.2106323242188	322.7652893066406	-538.38818359375	628.7852783203125	375.1642761230469	-536.84228515625	714.746826171875	320.6901550292969	-491.2480163574219	697.7374877929688	361.478271484375	-440.6658325195312	1346.458618164062	738.58154296875	-457.9713134765625	1284.916381835938	800.2890625	-459.9661865234375	1024.78466796875	859.4962768554688	-481.4864501953125	1009.833984375	766.5138549804688	-265.885498046875	872.6699829101562	815.8780517578125	-294.03857421875	843.478515625	877.6904296875	-416.0961303710938	967.69775390625	872.0723876953125	-193.6674346923828	716.522216796875	809.56396484375	-201.9561767578125	786.15185546875	830.25	-250.2789916992188	764.8291015625	873.4432983398438	-489.2125244140625	1543.789184570312	638.3644409179688	-320.7586059570312	1563.05908203125	534.30419921875	-358.8878173828125	1572.528198242188	650.5338134765625	-454.5498352050781	1525.577392578125	480.6119079589844	-435.4542541503906	923.3589477539062	410.1866149902344	-480.2461242675781	917.2005004882812	767.5646362304688	-339.0466003417969	913.883544921875	734.5608520507812	-327.7964172363281	921.9568481445312	471.5920715332031	-211.9260101318359	474.2567749023438	486.0740356445312	-278.0652160644531	593.6934814453125	454.4875183105469	-200.0321350097656	34.27049255371094	551.8558349609375	-201.2592163085938	237.2985076904297	507.8696899414062	6.987777233123779	70.95450592041016	610.3995971679688	-67.99564361572266	59.06800842285156	643.3353271484375	-74.95371246337891	46.80460739135742	538.3952026367188	-235.6607818603516	29.52859878540039	608.8616333007812	-578.647705078125	449.0296936035156	725.029541015625	-455.0072937011719	684.9368896484375	763.70751953125	-803.4973754882812	82.14658355712891	663.9093017578125	-623.1661376953125	329.1566772460938	705.6331787109375	-629.4654541015625	38.57273483276367	614.1696166992188	-697.7526245117188	53.7464714050293	580.5414428710938	-726.8802490234375	46.41997909545898	675.6732177734375	-870.3749389648438	101.7515563964844	602.8760986328125	
220	2.19	-532.6338500976562	946.9971923828125	641.67724609375	-525.077392578125	928.8743286132812	508.3594970703125	-526.7495727539062	1012.724182128906	585.8578491210938	-282.7597045898438	1157.423706054688	598.9259643554688	-536.8215942382812	1118.678344726562	580.1919555664062	-484.9229125976562	1362.652709960938	575.427490234375	-331.3126525878906	1279.081787109375	590.5778198242188	-536.5552368164062	1224.716674804688	647.6373901367188	-496.1427917480469	1321.774291992188	473.833984375	-407.6493530273438	1332.42919921875	425.4868774414062	-452.4066162109375	1222.612548828125	356.9999694824219	-485.2797241210938	1028.371459960938	333.863037109375	-539.6251831054688	1021.517150878906	398.5422973632812	-467.0543518066406	795.341552734375	381.3757019042969	-513.0448608398438	800.302001953125	312.6955261230469	-500.0736389160156	924.2555541992188	322.7766723632812	-534.2046508789062	629.33837890625	376.1994018554688	-531.7785034179688	715.0218505859375	321.3016967773438	-486.3272705078125	697.6289672851562	362.1130065917969	-430.9488830566406	1346.91015625	737.2354125976562	-447.6256103515625	1285.247924804688	799.0590209960938	-447.7317199707031	1025.261962890625	858.4911499023438	-469.8685607910156	1010.134460449219	765.8790893554688	-253.0028076171875	874.59521484375	813.556396484375	-280.2730102539062	845.3800659179688	875.7476196289062	-403.4434204101562	968.6304931640625	870.8717041015625	-179.8720245361328	718.893310546875	806.6670532226562	-188.3640747070312	788.5371704101562	827.2764892578125	-236.1369934082031	766.8892822265625	871.050048828125	-480.3632507324219	1544.028564453125	637.2135009765625	-312.0494689941406	1563.4892578125	532.8750610351562	-350.0365600585938	1572.859375	649.1871948242188	-445.8939819335938	1526.088500976562	479.3594360351562	-423.7108764648438	924.0591430664062	409.3975219726562	-468.281982421875	917.3350219726562	767.0437622070312	-327.0444641113281	914.3347778320312	733.7492065429688	-316.0284118652344	922.7747802734375	470.79736328125	-201.91455078125	473.8707885742188	486.9600219726562	-267.3618469238281	593.5462646484375	454.9319763183594	-199.2480926513672	35.03034591674805	552.578369140625	-194.8281097412109	236.6476745605469	509.0128479003906	9.605093955993652	64.83267974853516	611.7073974609375	-66.21002960205078	55.00205230712891	644.4841918945312	-73.67446136474609	44.6059684753418	539.5147705078125	-235.0028228759766	30.57424545288086	609.4873657226562	-567.9822387695312	449.7720642089844	725.627685546875	-443.3898010253906	685.1707763671875	763.169677734375	-800.7708740234375	85.95211791992188	665.6256103515625	-614.9290161132812	330.6598510742188	707.1070556640625	-629.6411743164062	38.5753059387207	614.3195190429688	-696.5219116210938	55.05157089233398	581.5888671875	-725.6246948242188	46.41943359375	676.4666137695312	-866.4102172851562	108.9148406982422	604.6917724609375	
